<svg width="500" height="500" viewBox="0 0 500 500" fill="none" xmlns="http://www.w3.org/2000/svg">
<rect width="500" height="500" fill="#373737"/>
<path d="M100.12 320.2C97.3195 320.2 94.2529 320.133 90.9195 320C87.7195 319.867 84.4529 319.667 81.1195 319.4C77.9195 319.133 74.7195 318.8 71.5195 318.4C68.3195 318 65.3862 317.467 62.7195 316.8V182.4C65.3862 181.733 68.3195 181.2 71.5195 180.8C74.7195 180.4 77.9195 180.067 81.1195 179.8C84.4529 179.533 87.7195 179.333 90.9195 179.2C94.1195 179.067 97.1195 179 99.9195 179C107.92 179 115.386 179.6 122.32 180.8C129.386 182 135.453 184.067 140.52 187C145.72 189.8 149.786 193.533 152.72 198.2C155.653 202.867 157.12 208.6 157.12 215.4C157.12 223 155.32 229.267 151.72 234.2C148.12 239 143.32 242.6 137.32 245C145.453 247.4 151.92 251.2 156.72 256.4C161.52 261.6 163.92 268.933 163.92 278.4C163.92 292.267 158.786 302.733 148.52 309.8C138.386 316.733 122.253 320.2 100.12 320.2ZM81.9195 254.4V303.2C83.3862 303.333 85.1195 303.467 87.1195 303.6C88.8529 303.733 90.8529 303.867 93.1195 304C95.5195 304 98.2529 304 101.32 304C107.053 304 112.453 303.667 117.52 303C122.72 302.2 127.253 300.867 131.12 299C134.986 297.133 138.053 294.533 140.32 291.2C142.72 287.867 143.92 283.667 143.92 278.6C143.92 274.067 143.053 270.267 141.32 267.2C139.586 264 137.053 261.467 133.72 259.6C130.52 257.733 126.653 256.4 122.12 255.6C117.586 254.8 112.52 254.4 106.92 254.4H81.9195ZM81.9195 238.8H102.32C107.12 238.8 111.653 238.467 115.92 237.8C120.186 237.133 123.853 235.933 126.92 234.2C130.12 232.467 132.586 230.2 134.32 227.4C136.186 224.6 137.12 221.067 137.12 216.8C137.12 212.8 136.186 209.467 134.32 206.8C132.453 204 129.853 201.8 126.52 200.2C123.32 198.467 119.52 197.2 115.12 196.4C110.72 195.6 106.053 195.2 101.12 195.2C96.1862 195.2 92.3195 195.267 89.5195 195.4C86.7195 195.533 84.1862 195.733 81.9195 196V238.8ZM223.435 305.2C243.702 305.2 253.835 298.267 253.835 284.4C253.835 280.133 252.902 276.533 251.035 273.6C249.302 270.533 246.902 267.933 243.835 265.8C240.768 263.533 237.235 261.6 233.235 260C229.368 258.4 225.235 256.8 220.835 255.2C215.768 253.467 210.968 251.533 206.435 249.4C201.902 247.133 197.968 244.533 194.635 241.6C191.302 238.533 188.635 234.933 186.635 230.8C184.768 226.667 183.835 221.667 183.835 215.8C183.835 203.667 187.968 194.2 196.235 187.4C204.502 180.6 215.902 177.2 230.435 177.2C238.835 177.2 246.435 178.133 253.235 180C260.168 181.733 265.235 183.667 268.435 185.8L262.235 201.6C259.435 199.867 255.235 198.2 249.635 196.6C244.168 194.867 237.768 194 230.435 194C226.702 194 223.235 194.4 220.035 195.2C216.835 196 214.035 197.2 211.635 198.8C209.235 200.4 207.302 202.467 205.835 205C204.502 207.4 203.835 210.267 203.835 213.6C203.835 217.333 204.568 220.467 206.035 223C207.502 225.533 209.568 227.8 212.235 229.8C214.902 231.667 217.968 233.4 221.435 235C225.035 236.6 228.968 238.2 233.235 239.8C239.235 242.2 244.702 244.6 249.635 247C254.702 249.4 259.035 252.267 262.635 255.6C266.368 258.933 269.235 262.933 271.235 267.6C273.235 272.133 274.235 277.667 274.235 284.2C274.235 296.333 269.768 305.667 260.835 312.2C252.035 318.733 239.568 322 223.435 322C217.968 322 212.902 321.6 208.235 320.8C203.702 320.133 199.635 319.333 196.035 318.4C192.435 317.333 189.302 316.267 186.635 315.2C184.102 314 182.102 313 180.635 312.2L186.435 296.2C189.502 297.933 194.168 299.867 200.435 302C206.702 304.133 214.368 305.2 223.435 305.2Z" fill="#52FF00"/>
<path d="M327.147 249.675C327.147 264.608 329.305 278.433 333.622 291.15C337.938 303.867 344.297 315.65 352.697 326.5L341.147 334.375C332.047 323.292 324.697 310.575 319.097 296.225C313.613 281.758 310.872 266.242 310.872 249.675C310.872 233.108 313.613 217.65 319.097 203.3C324.697 188.833 332.047 176.058 341.147 164.975L352.697 172.85C344.297 183.7 337.938 195.483 333.622 208.2C329.305 220.917 327.147 234.742 327.147 249.675ZM394.749 249.675C394.749 234.742 392.59 220.917 388.274 208.2C383.957 195.483 377.599 183.7 369.199 172.85L380.749 164.975C389.849 176.058 397.14 188.833 402.624 203.3C408.224 217.65 411.024 233.108 411.024 249.675C411.024 266.242 408.224 281.758 402.624 296.225C397.14 310.575 389.849 323.292 380.749 334.375L369.199 326.5C377.599 315.65 383.957 303.867 388.274 291.15C392.59 278.433 394.749 264.608 394.749 249.675ZM455.862 282.05C455.979 282.983 456.037 283.917 456.037 284.85C456.037 285.667 456.037 286.542 456.037 287.475C456.037 294.825 454.929 302.058 452.712 309.175C450.612 316.408 447.695 323.292 443.962 329.825L431.362 325.8C434.279 319.85 436.204 313.783 437.137 307.6C438.07 301.533 438.537 295.817 438.537 290.45C438.537 288.933 438.479 287.475 438.362 286.075C438.362 284.675 438.304 283.333 438.187 282.05H455.862ZM457.962 222.725C457.962 225.875 456.912 228.617 454.812 230.95C452.712 233.283 449.854 234.45 446.237 234.45C442.62 234.45 439.762 233.283 437.662 230.95C435.562 228.617 434.512 225.875 434.512 222.725C434.512 219.575 435.562 216.833 437.662 214.5C439.762 212.167 442.62 211 446.237 211C449.854 211 452.712 212.167 454.812 214.5C456.912 216.833 457.962 219.575 457.962 222.725Z" fill="#24FF00"/>
<path d="M499 500H0C12.8 184 338 36.3333 499 2V500Z" fill="#B0B0B0" fill-opacity="0.14"/>
</svg>
