<svg width="87" height="64" viewBox="0 0 87 64" fill="none" xmlns="http://www.w3.org/2000/svg">
<rect width="87" height="64" rx="5" fill="white"/>
<line x1="8.5" y1="8" x2="8.5" y2="57" stroke="#DDDDDD"/>
<line x1="8.00694" y1="56.5" x2="82.0066" y2="57.5278" stroke="#DDDDDD"/>
<line x1="11.6799" y1="52.6159" x2="23.6799" y2="42.6159" stroke="#63FD4A"/>
<line x1="23.2481" y1="42.5659" x2="37.2481" y2="50.5659" stroke="#FF3131"/>
<line x1="23.2481" y1="42.5659" x2="37.2481" y2="50.5659" stroke="#FF3131"/>
<line x1="44.1411" y1="36.5203" x2="61.1411" y2="41.5203" stroke="#FF3131"/>
<line x1="36.5588" y1="50.7647" x2="44.5588" y2="35.7647" stroke="#63FD4A"/>
<line x1="60.5713" y1="41.7428" x2="69.5713" y2="26.7428" stroke="#63FD4A"/>
<circle cx="24" cy="43" r="2" fill="#9A92FF"/>
<circle cx="36" cy="50" r="2" fill="#9A92FF"/>
<circle cx="45" cy="37" r="2" fill="#9A92FF"/>
<circle cx="60" cy="41" r="2" fill="#9A92FF"/>
<circle cx="69" cy="27" r="2" fill="#9A92FF"/>
<path d="M14 54C28.8333 54.5 62.9 51.2 80.5 34" stroke="#C3C1FF" stroke-opacity="0.24"/>
<path d="M51.056 19.536C51.056 20.784 50.6 21.832 49.688 22.68C48.792 23.512 47.6 24 46.112 24.144V26.16C46.112 26.368 46.048 26.536 45.92 26.664C45.808 26.808 45.648 26.88 45.44 26.88C45.248 26.88 45.088 26.808 44.96 26.664C44.832 26.536 44.768 26.368 44.768 26.16V24.168C43.792 24.12 42.824 23.928 41.864 23.592C40.904 23.256 40.112 22.776 39.488 22.152C39.296 21.976 39.2 21.744 39.2 21.456C39.2 21.28 39.24 21.128 39.32 21C39.416 20.872 39.536 20.808 39.68 20.808C39.84 20.808 40.024 20.888 40.232 21.048C41.88 22.264 43.56 22.872 45.272 22.872C46.616 22.872 47.664 22.584 48.416 22.008C49.184 21.416 49.568 20.592 49.568 19.536C49.568 18.912 49.376 18.408 48.992 18.024C48.608 17.624 48.128 17.32 47.552 17.112C46.976 16.904 46.192 16.672 45.2 16.416C43.984 16.112 43 15.816 42.248 15.528C41.512 15.224 40.88 14.768 40.352 14.16C39.84 13.536 39.584 12.704 39.584 11.664C39.584 10.8 39.8 10.024 40.232 9.336C40.664 8.632 41.272 8.072 42.056 7.656C42.856 7.224 43.76 6.976 44.768 6.912V4.92C44.768 4.712 44.824 4.544 44.936 4.416C45.064 4.272 45.232 4.2 45.44 4.2C45.632 4.2 45.784 4.272 45.896 4.416C46.024 4.544 46.088 4.712 46.088 4.92V6.912C46.968 6.992 47.816 7.2 48.632 7.536C49.448 7.872 50.128 8.336 50.672 8.928C50.88 9.136 50.984 9.368 50.984 9.624C50.984 9.8 50.928 9.952 50.816 10.08C50.72 10.208 50.608 10.272 50.48 10.272C50.288 10.272 50.104 10.192 49.928 10.032C49.176 9.392 48.456 8.928 47.768 8.64C47.08 8.352 46.272 8.208 45.344 8.208C44.032 8.208 42.992 8.52 42.224 9.144C41.456 9.752 41.072 10.584 41.072 11.64C41.072 12.36 41.28 12.944 41.696 13.392C42.112 13.84 42.624 14.176 43.232 14.4C43.856 14.624 44.68 14.864 45.704 15.12C46.872 15.408 47.808 15.696 48.512 15.984C49.232 16.256 49.832 16.68 50.312 17.256C50.808 17.816 51.056 18.576 51.056 19.536Z" fill="#02E642"/>
</svg>
