<svg width="132" height="81" viewBox="0 0 132 81" fill="none" xmlns="http://www.w3.org/2000/svg">
<rect width="132" height="81" rx="5" fill="url(#paint0_linear)"/>
<circle cx="118" cy="66" r="9" fill="#AF5F00"/>
<circle cx="106" cy="66" r="9" fill="#9B0000"/>
<circle cx="118" cy="66" r="9" fill="#AF5F00" fill-opacity="0.74"/>
<path d="M9.864 52.608H7.288V52.168L9.912 48.416H10.376V52.176H11.16V52.608H10.376V54H9.864V52.608ZM7.792 52.176H9.864V49.184L7.792 52.176ZM14.3093 52.608H11.7333V52.168L14.3573 48.416H14.8213V52.176H15.6053V52.608H14.8213V54H14.3093V52.608ZM12.2373 52.176H14.3093V49.184L12.2373 52.176ZM18.7546 52.608H16.1786V52.168L18.8026 48.416H19.2666V52.176H20.0506V52.608H19.2666V54H18.7546V52.608ZM16.6826 52.176H18.7546V49.184L16.6826 52.176ZM23.1999 52.608H20.6239V52.168L23.2479 48.416H23.7119V52.176H24.4959V52.608H23.7119V54H23.1999V52.608ZM21.1279 52.176H23.1999V49.184L21.1279 52.176ZM27.7998 52.536C27.8531 52.92 28.0051 53.208 28.2558 53.4C28.5118 53.5867 28.8238 53.68 29.1918 53.68C29.3998 53.68 29.5865 53.6427 29.7518 53.568C29.9225 53.4933 30.0665 53.392 30.1838 53.264C30.3011 53.1307 30.3891 52.9787 30.4478 52.808C30.5118 52.632 30.5438 52.4427 30.5438 52.24C30.5438 52.032 30.5091 51.84 30.4398 51.664C30.3758 51.488 30.2825 51.336 30.1598 51.208C30.0425 51.08 29.8958 50.9813 29.7198 50.912C29.5491 50.8427 29.3571 50.808 29.1438 50.808C28.8878 50.808 28.6585 50.856 28.4558 50.952C28.2531 51.0427 28.0745 51.1893 27.9198 51.392L27.4958 51.336L27.9518 48.416H30.7518V48.848H28.3838L28.0318 50.744C28.1438 50.6747 28.2451 50.616 28.3358 50.568C28.4318 50.52 28.5278 50.4827 28.6238 50.456C28.7198 50.424 28.8185 50.4027 28.9198 50.392C29.0265 50.3813 29.1438 50.376 29.2718 50.376C29.5278 50.376 29.7651 50.4187 29.9838 50.504C30.2025 50.5893 30.3918 50.712 30.5518 50.872C30.7118 51.032 30.8345 51.2293 30.9198 51.464C31.0105 51.6933 31.0558 51.952 31.0558 52.24C31.0558 52.5387 31.0051 52.8053 30.9038 53.04C30.8078 53.2693 30.6771 53.464 30.5118 53.624C30.3465 53.784 30.1545 53.9067 29.9358 53.992C29.7225 54.072 29.5011 54.112 29.2718 54.112C29.0051 54.112 28.7545 54.0853 28.5198 54.032C28.2905 53.9787 28.0878 53.8907 27.9118 53.768C27.7358 53.64 27.5918 53.4773 27.4798 53.28C27.3731 53.0773 27.3091 52.8293 27.2878 52.536H27.7998ZM32.2451 52.536C32.2985 52.92 32.4505 53.208 32.7011 53.4C32.9571 53.5867 33.2691 53.68 33.6371 53.68C33.8451 53.68 34.0318 53.6427 34.1971 53.568C34.3678 53.4933 34.5118 53.392 34.6291 53.264C34.7465 53.1307 34.8345 52.9787 34.8931 52.808C34.9571 52.632 34.9891 52.4427 34.9891 52.24C34.9891 52.032 34.9545 51.84 34.8851 51.664C34.8211 51.488 34.7278 51.336 34.6051 51.208C34.4878 51.08 34.3411 50.9813 34.1651 50.912C33.9945 50.8427 33.8025 50.808 33.5891 50.808C33.3331 50.808 33.1038 50.856 32.9011 50.952C32.6985 51.0427 32.5198 51.1893 32.3651 51.392L31.9411 51.336L32.3971 48.416H35.1971V48.848H32.8291L32.4771 50.744C32.5891 50.6747 32.6905 50.616 32.7811 50.568C32.8771 50.52 32.9731 50.4827 33.0691 50.456C33.1651 50.424 33.2638 50.4027 33.3651 50.392C33.4718 50.3813 33.5891 50.376 33.7171 50.376C33.9731 50.376 34.2105 50.4187 34.4291 50.504C34.6478 50.5893 34.8371 50.712 34.9971 50.872C35.1571 51.032 35.2798 51.2293 35.3651 51.464C35.4558 51.6933 35.5011 51.952 35.5011 52.24C35.5011 52.5387 35.4505 52.8053 35.3491 53.04C35.2531 53.2693 35.1225 53.464 34.9571 53.624C34.7918 53.784 34.5998 53.9067 34.3811 53.992C34.1678 54.072 33.9465 54.112 33.7171 54.112C33.4505 54.112 33.1998 54.0853 32.9651 54.032C32.7358 53.9787 32.5331 53.8907 32.3571 53.768C32.1811 53.64 32.0371 53.4773 31.9251 53.28C31.8185 53.0773 31.7545 52.8293 31.7331 52.536H32.2451ZM36.6904 52.536C36.7438 52.92 36.8958 53.208 37.1464 53.4C37.4024 53.5867 37.7144 53.68 38.0824 53.68C38.2904 53.68 38.4771 53.6427 38.6424 53.568C38.8131 53.4933 38.9571 53.392 39.0744 53.264C39.1918 53.1307 39.2798 52.9787 39.3384 52.808C39.4024 52.632 39.4344 52.4427 39.4344 52.24C39.4344 52.032 39.3998 51.84 39.3304 51.664C39.2664 51.488 39.1731 51.336 39.0504 51.208C38.9331 51.08 38.7864 50.9813 38.6104 50.912C38.4398 50.8427 38.2478 50.808 38.0344 50.808C37.7784 50.808 37.5491 50.856 37.3464 50.952C37.1438 51.0427 36.9651 51.1893 36.8104 51.392L36.3864 51.336L36.8424 48.416H39.6424V48.848H37.2744L36.9224 50.744C37.0344 50.6747 37.1358 50.616 37.2264 50.568C37.3224 50.52 37.4184 50.4827 37.5144 50.456C37.6104 50.424 37.7091 50.4027 37.8104 50.392C37.9171 50.3813 38.0344 50.376 38.1624 50.376C38.4184 50.376 38.6558 50.4187 38.8744 50.504C39.0931 50.5893 39.2824 50.712 39.4424 50.872C39.6024 51.032 39.7251 51.2293 39.8104 51.464C39.9011 51.6933 39.9464 51.952 39.9464 52.24C39.9464 52.5387 39.8958 52.8053 39.7944 53.04C39.6984 53.2693 39.5678 53.464 39.4024 53.624C39.2371 53.784 39.0451 53.9067 38.8264 53.992C38.6131 54.072 38.3918 54.112 38.1624 54.112C37.8958 54.112 37.6451 54.0853 37.4104 54.032C37.1811 53.9787 36.9784 53.8907 36.8024 53.768C36.6264 53.64 36.4824 53.4773 36.3704 53.28C36.2638 53.0773 36.1998 52.8293 36.1784 52.536H36.6904ZM41.1358 52.536C41.1891 52.92 41.3411 53.208 41.5918 53.4C41.8478 53.5867 42.1598 53.68 42.5278 53.68C42.7358 53.68 42.9224 53.6427 43.0878 53.568C43.2584 53.4933 43.4024 53.392 43.5198 53.264C43.6371 53.1307 43.7251 52.9787 43.7838 52.808C43.8478 52.632 43.8798 52.4427 43.8798 52.24C43.8798 52.032 43.8451 51.84 43.7758 51.664C43.7118 51.488 43.6184 51.336 43.4958 51.208C43.3784 51.08 43.2318 50.9813 43.0558 50.912C42.8851 50.8427 42.6931 50.808 42.4798 50.808C42.2238 50.808 41.9944 50.856 41.7918 50.952C41.5891 51.0427 41.4104 51.1893 41.2558 51.392L40.8318 51.336L41.2878 48.416H44.0878V48.848H41.7198L41.3678 50.744C41.4798 50.6747 41.5811 50.616 41.6718 50.568C41.7678 50.52 41.8638 50.4827 41.9598 50.456C42.0558 50.424 42.1544 50.4027 42.2558 50.392C42.3624 50.3813 42.4798 50.376 42.6078 50.376C42.8638 50.376 43.1011 50.4187 43.3198 50.504C43.5384 50.5893 43.7278 50.712 43.8878 50.872C44.0478 51.032 44.1704 51.2293 44.2558 51.464C44.3464 51.6933 44.3918 51.952 44.3918 52.24C44.3918 52.5387 44.3411 52.8053 44.2398 53.04C44.1438 53.2693 44.0131 53.464 43.8478 53.624C43.6824 53.784 43.4904 53.9067 43.2718 53.992C43.0584 54.072 42.8371 54.112 42.6078 54.112C42.3411 54.112 42.0904 54.0853 41.8558 54.032C41.6264 53.9787 41.4238 53.8907 41.2478 53.768C41.0718 53.64 40.9278 53.4773 40.8158 53.28C40.7091 53.0773 40.6451 52.8293 40.6238 52.536H41.1358ZM50.5116 49.744C50.453 49.456 50.3356 49.2267 50.1596 49.056C49.9836 48.88 49.7436 48.792 49.4396 48.792C49.093 48.792 48.8183 48.8747 48.6156 49.04C48.4183 49.2053 48.2663 49.416 48.1596 49.672C48.053 49.9227 47.981 50.1973 47.9436 50.496C47.9063 50.7947 47.877 51.0773 47.8556 51.344C47.9356 51.2373 48.0183 51.1307 48.1036 51.024C48.1943 50.9173 48.2956 50.824 48.4076 50.744C48.5196 50.6587 48.6503 50.592 48.7996 50.544C48.949 50.4907 49.1276 50.464 49.3356 50.464C49.9063 50.464 50.3463 50.6267 50.6556 50.952C50.9703 51.272 51.1276 51.7147 51.1276 52.28C51.1276 52.8507 50.9703 53.2987 50.6556 53.624C50.341 53.9493 49.8956 54.112 49.3196 54.112C49.037 54.112 48.7756 54.0667 48.5356 53.976C48.2956 53.88 48.0876 53.7253 47.9116 53.512C47.7356 53.2987 47.597 53.0213 47.4956 52.68C47.3943 52.3333 47.3436 51.912 47.3436 51.416C47.3436 51.08 47.373 50.7333 47.4316 50.376C47.4903 50.0133 47.5943 49.6827 47.7436 49.384C47.8983 49.0853 48.1063 48.84 48.3676 48.648C48.6343 48.456 48.9756 48.36 49.3916 48.36C49.8396 48.36 50.213 48.4773 50.5116 48.712C50.8103 48.9467 50.9863 49.2907 51.0396 49.744H50.5116ZM49.3196 50.896C49.1223 50.896 48.9436 50.9333 48.7836 51.008C48.629 51.0827 48.4956 51.184 48.3836 51.312C48.277 51.44 48.1943 51.5893 48.1356 51.76C48.077 51.9253 48.0476 52.104 48.0476 52.296C48.0476 52.456 48.069 52.6187 48.1116 52.784C48.1596 52.944 48.2343 53.0907 48.3356 53.224C48.4423 53.3573 48.5756 53.4667 48.7356 53.552C48.8956 53.6373 49.093 53.68 49.3276 53.68C49.5676 53.68 49.7676 53.64 49.9276 53.56C50.093 53.4747 50.2263 53.3653 50.3276 53.232C50.429 53.0933 50.501 52.9413 50.5436 52.776C50.5916 52.6053 50.6156 52.4347 50.6156 52.264C50.6156 51.8267 50.509 51.4907 50.2956 51.256C50.0876 51.016 49.7623 50.896 49.3196 50.896ZM54.9569 49.744C54.8983 49.456 54.7809 49.2267 54.6049 49.056C54.4289 48.88 54.1889 48.792 53.8849 48.792C53.5383 48.792 53.2636 48.8747 53.0609 49.04C52.8636 49.2053 52.7116 49.416 52.6049 49.672C52.4983 49.9227 52.4263 50.1973 52.3889 50.496C52.3516 50.7947 52.3223 51.0773 52.3009 51.344C52.3809 51.2373 52.4636 51.1307 52.5489 51.024C52.6396 50.9173 52.7409 50.824 52.8529 50.744C52.9649 50.6587 53.0956 50.592 53.2449 50.544C53.3943 50.4907 53.5729 50.464 53.7809 50.464C54.3516 50.464 54.7916 50.6267 55.1009 50.952C55.4156 51.272 55.5729 51.7147 55.5729 52.28C55.5729 52.8507 55.4156 53.2987 55.1009 53.624C54.7863 53.9493 54.3409 54.112 53.7649 54.112C53.4823 54.112 53.2209 54.0667 52.9809 53.976C52.7409 53.88 52.5329 53.7253 52.3569 53.512C52.1809 53.2987 52.0423 53.0213 51.9409 52.68C51.8396 52.3333 51.7889 51.912 51.7889 51.416C51.7889 51.08 51.8183 50.7333 51.8769 50.376C51.9356 50.0133 52.0396 49.6827 52.1889 49.384C52.3436 49.0853 52.5516 48.84 52.8129 48.648C53.0796 48.456 53.4209 48.36 53.8369 48.36C54.2849 48.36 54.6583 48.4773 54.9569 48.712C55.2556 48.9467 55.4316 49.2907 55.4849 49.744H54.9569ZM53.7649 50.896C53.5676 50.896 53.3889 50.9333 53.2289 51.008C53.0743 51.0827 52.9409 51.184 52.8289 51.312C52.7223 51.44 52.6396 51.5893 52.5809 51.76C52.5223 51.9253 52.4929 52.104 52.4929 52.296C52.4929 52.456 52.5143 52.6187 52.5569 52.784C52.6049 52.944 52.6796 53.0907 52.7809 53.224C52.8876 53.3573 53.0209 53.4667 53.1809 53.552C53.3409 53.6373 53.5383 53.68 53.7729 53.68C54.0129 53.68 54.2129 53.64 54.3729 53.56C54.5383 53.4747 54.6716 53.3653 54.7729 53.232C54.8743 53.0933 54.9463 52.9413 54.9889 52.776C55.0369 52.6053 55.0609 52.4347 55.0609 52.264C55.0609 51.8267 54.9543 51.4907 54.7409 51.256C54.5329 51.016 54.2076 50.896 53.7649 50.896ZM59.4023 49.744C59.3436 49.456 59.2263 49.2267 59.0503 49.056C58.8743 48.88 58.6343 48.792 58.3303 48.792C57.9836 48.792 57.7089 48.8747 57.5063 49.04C57.3089 49.2053 57.1569 49.416 57.0503 49.672C56.9436 49.9227 56.8716 50.1973 56.8343 50.496C56.7969 50.7947 56.7676 51.0773 56.7463 51.344C56.8263 51.2373 56.9089 51.1307 56.9943 51.024C57.0849 50.9173 57.1863 50.824 57.2983 50.744C57.4103 50.6587 57.5409 50.592 57.6903 50.544C57.8396 50.4907 58.0183 50.464 58.2263 50.464C58.7969 50.464 59.2369 50.6267 59.5463 50.952C59.8609 51.272 60.0182 51.7147 60.0182 52.28C60.0182 52.8507 59.8609 53.2987 59.5463 53.624C59.2316 53.9493 58.7863 54.112 58.2103 54.112C57.9276 54.112 57.6663 54.0667 57.4263 53.976C57.1863 53.88 56.9783 53.7253 56.8023 53.512C56.6263 53.2987 56.4876 53.0213 56.3863 52.68C56.2849 52.3333 56.2343 51.912 56.2343 51.416C56.2343 51.08 56.2636 50.7333 56.3223 50.376C56.3809 50.0133 56.4849 49.6827 56.6343 49.384C56.7889 49.0853 56.9969 48.84 57.2583 48.648C57.5249 48.456 57.8663 48.36 58.2823 48.36C58.7303 48.36 59.1036 48.4773 59.4023 48.712C59.7009 48.9467 59.8769 49.2907 59.9303 49.744H59.4023ZM58.2103 50.896C58.0129 50.896 57.8343 50.9333 57.6743 51.008C57.5196 51.0827 57.3863 51.184 57.2743 51.312C57.1676 51.44 57.0849 51.5893 57.0263 51.76C56.9676 51.9253 56.9383 52.104 56.9383 52.296C56.9383 52.456 56.9596 52.6187 57.0023 52.784C57.0503 52.944 57.1249 53.0907 57.2263 53.224C57.3329 53.3573 57.4663 53.4667 57.6263 53.552C57.7863 53.6373 57.9836 53.68 58.2183 53.68C58.4583 53.68 58.6583 53.64 58.8183 53.56C58.9836 53.4747 59.1169 53.3653 59.2183 53.232C59.3196 53.0933 59.3916 52.9413 59.4343 52.776C59.4823 52.6053 59.5063 52.4347 59.5063 52.264C59.5063 51.8267 59.3996 51.4907 59.1863 51.256C58.9783 51.016 58.6529 50.896 58.2103 50.896ZM63.8476 49.744C63.7889 49.456 63.6716 49.2267 63.4956 49.056C63.3196 48.88 63.0796 48.792 62.7756 48.792C62.4289 48.792 62.1542 48.8747 61.9516 49.04C61.7542 49.2053 61.6022 49.416 61.4956 49.672C61.3889 49.9227 61.3169 50.1973 61.2796 50.496C61.2422 50.7947 61.2129 51.0773 61.1916 51.344C61.2716 51.2373 61.3542 51.1307 61.4396 51.024C61.5302 50.9173 61.6316 50.824 61.7436 50.744C61.8556 50.6587 61.9862 50.592 62.1356 50.544C62.2849 50.4907 62.4636 50.464 62.6716 50.464C63.2422 50.464 63.6822 50.6267 63.9916 50.952C64.3062 51.272 64.4636 51.7147 64.4636 52.28C64.4636 52.8507 64.3062 53.2987 63.9916 53.624C63.6769 53.9493 63.2316 54.112 62.6556 54.112C62.3729 54.112 62.1116 54.0667 61.8716 53.976C61.6316 53.88 61.4236 53.7253 61.2476 53.512C61.0716 53.2987 60.9329 53.0213 60.8316 52.68C60.7302 52.3333 60.6796 51.912 60.6796 51.416C60.6796 51.08 60.7089 50.7333 60.7676 50.376C60.8262 50.0133 60.9302 49.6827 61.0796 49.384C61.2342 49.0853 61.4422 48.84 61.7036 48.648C61.9702 48.456 62.3116 48.36 62.7276 48.36C63.1756 48.36 63.5489 48.4773 63.8476 48.712C64.1462 48.9467 64.3222 49.2907 64.3756 49.744H63.8476ZM62.6556 50.896C62.4582 50.896 62.2796 50.9333 62.1196 51.008C61.9649 51.0827 61.8316 51.184 61.7196 51.312C61.6129 51.44 61.5302 51.5893 61.4716 51.76C61.4129 51.9253 61.3836 52.104 61.3836 52.296C61.3836 52.456 61.4049 52.6187 61.4476 52.784C61.4956 52.944 61.5702 53.0907 61.6716 53.224C61.7782 53.3573 61.9116 53.4667 62.0716 53.552C62.2316 53.6373 62.4289 53.68 62.6636 53.68C62.9036 53.68 63.1036 53.64 63.2636 53.56C63.4289 53.4747 63.5622 53.3653 63.6636 53.232C63.7649 53.0933 63.8369 52.9413 63.8796 52.776C63.9276 52.6053 63.9516 52.4347 63.9516 52.264C63.9516 51.8267 63.8449 51.4907 63.6316 51.256C63.4236 51.016 63.0982 50.896 62.6556 50.896ZM67.4954 48.416H71.0874V48.896C70.6821 49.3547 70.3381 49.8267 70.0554 50.312C69.7728 50.792 69.5408 51.2613 69.3594 51.72C69.1781 52.1733 69.0421 52.5973 68.9514 52.992C68.8661 53.3867 68.8154 53.7227 68.7994 54H68.2394C68.2661 53.5947 68.3461 53.1653 68.4794 52.712C68.6181 52.2533 68.7888 51.8 68.9914 51.352C69.1941 50.904 69.4234 50.472 69.6794 50.056C69.9354 49.6347 70.1994 49.2587 70.4714 48.928H67.4954V48.416ZM71.9408 48.416H75.5328V48.896C75.1274 49.3547 74.7834 49.8267 74.5008 50.312C74.2181 50.792 73.9861 51.2613 73.8048 51.72C73.6234 52.1733 73.4874 52.5973 73.3968 52.992C73.3114 53.3867 73.2608 53.7227 73.2448 54H72.6848C72.7114 53.5947 72.7914 53.1653 72.9248 52.712C73.0634 52.2533 73.2341 51.8 73.4368 51.352C73.6394 50.904 73.8688 50.472 74.1248 50.056C74.3808 49.6347 74.6448 49.2587 74.9168 48.928H71.9408V48.416ZM76.3861 48.416H79.9781V48.896C79.5727 49.3547 79.2287 49.8267 78.9461 50.312C78.6634 50.792 78.4314 51.2613 78.2501 51.72C78.0687 52.1733 77.9327 52.5973 77.8421 52.992C77.7567 53.3867 77.7061 53.7227 77.6901 54H77.1301C77.1567 53.5947 77.2367 53.1653 77.3701 52.712C77.5087 52.2533 77.6794 51.8 77.8821 51.352C78.0847 50.904 78.3141 50.472 78.5701 50.056C78.8261 49.6347 79.0901 49.2587 79.3621 48.928H76.3861V48.416ZM80.8314 48.416H84.4234V48.896C84.018 49.3547 83.674 49.8267 83.3914 50.312C83.1087 50.792 82.8767 51.2613 82.6954 51.72C82.514 52.1733 82.378 52.5973 82.2874 52.992C82.202 53.3867 82.1514 53.7227 82.1354 54H81.5754C81.602 53.5947 81.682 53.1653 81.8154 52.712C81.954 52.2533 82.1247 51.8 82.3274 51.352C82.53 50.904 82.7594 50.472 83.0154 50.056C83.2714 49.6347 83.5354 49.2587 83.8074 48.928H80.8314V48.416Z" fill="url(#paint1_linear)"/>
<path d="M33.114 63.332H31.84V63.038C32.0267 63.024 32.1947 63.0053 32.344 62.982C32.498 62.9587 32.631 62.9143 32.743 62.849C32.8597 62.7837 32.9553 62.6903 33.03 62.569C33.1093 62.443 33.1677 62.275 33.205 62.065H33.562V67H33.114V63.332ZM37.0036 63.332H35.7296V63.038C35.9163 63.024 36.0843 63.0053 36.2336 62.982C36.3876 62.9587 36.5206 62.9143 36.6326 62.849C36.7493 62.7837 36.845 62.6903 36.9196 62.569C36.999 62.443 37.0573 62.275 37.0946 62.065H37.4516V67H37.0036V63.332ZM39.1503 67.63H38.7583L40.4033 61.827H40.7953L39.1503 67.63ZM41.2105 63.682C41.2105 63.4393 41.2479 63.22 41.3225 63.024C41.3972 62.8233 41.5045 62.653 41.6445 62.513C41.7845 62.3683 41.9525 62.2587 42.1485 62.184C42.3492 62.1047 42.5709 62.065 42.8135 62.065C43.0609 62.065 43.2779 62.1023 43.4645 62.177C43.6559 62.247 43.8145 62.3427 43.9405 62.464C44.0712 62.5853 44.1692 62.73 44.2345 62.898C44.2999 63.066 44.3325 63.2433 44.3325 63.43C44.3325 63.6493 44.2952 63.843 44.2205 64.011C44.1505 64.179 44.0549 64.3283 43.9335 64.459C43.8169 64.5897 43.6815 64.7063 43.5275 64.809C43.3782 64.9117 43.2242 65.0097 43.0655 65.103C42.9069 65.1917 42.7505 65.278 42.5965 65.362C42.4425 65.446 42.3049 65.5347 42.1835 65.628C42.1042 65.6887 42.0272 65.754 41.9525 65.824C41.8779 65.8893 41.8102 65.9617 41.7495 66.041C41.6889 66.1203 41.6399 66.209 41.6025 66.307C41.5652 66.4003 41.5442 66.5053 41.5395 66.622H44.2905V67H41.0635C41.0682 66.762 41.0939 66.5473 41.1405 66.356C41.1872 66.1647 41.2899 65.978 41.4485 65.796C41.6212 65.6 41.7985 65.432 41.9805 65.292C42.1672 65.152 42.3492 65.0283 42.5265 64.921C42.7039 64.809 42.8719 64.7087 43.0305 64.62C43.1892 64.5267 43.3292 64.4263 43.4505 64.319C43.5719 64.2117 43.6675 64.0903 43.7375 63.955C43.8075 63.8197 43.8425 63.654 43.8425 63.458C43.8425 63.2993 43.8145 63.157 43.7585 63.031C43.7025 62.905 43.6255 62.7977 43.5275 62.709C43.4295 62.6203 43.3152 62.555 43.1845 62.513C43.0539 62.4663 42.9115 62.443 42.7575 62.443C42.5942 62.443 42.4449 62.478 42.3095 62.548C42.1789 62.6133 42.0645 62.702 41.9665 62.814C41.8732 62.926 41.8009 63.0567 41.7495 63.206C41.6982 63.3553 41.6772 63.514 41.6865 63.682H41.2105ZM46.7312 63.332H45.4572V63.038C45.6439 63.024 45.8119 63.0053 45.9612 62.982C46.1152 62.9587 46.2482 62.9143 46.3602 62.849C46.4769 62.7837 46.5725 62.6903 46.6472 62.569C46.7265 62.443 46.7849 62.275 46.8222 62.065H47.1792V67H46.7312V63.332Z" fill="url(#paint2_linear)"/>
<path d="M13.648 67V61.24H17.48V61.704H14.192V63.784H17.16V64.248H14.192V66.536H17.56V67H13.648ZM20.3226 64.456L18.6506 67H18.0346L20.0186 64.04L18.1146 61.24H18.7466L20.3226 63.664L21.9066 61.24H22.5386L20.6506 64.04L22.6266 67H22.0026L20.3226 64.456ZM23.4053 67V61.24H25.5093C25.8826 61.24 26.1893 61.2827 26.4293 61.368C26.6746 61.4533 26.8666 61.5707 27.0052 61.72C27.1493 61.8693 27.2479 62.0427 27.3012 62.24C27.3599 62.432 27.3893 62.6347 27.3893 62.848C27.3893 63.168 27.3226 63.432 27.1892 63.64C27.0613 63.848 26.8933 64.0133 26.6853 64.136C26.4773 64.2533 26.2399 64.336 25.9733 64.384C25.7119 64.432 25.4479 64.456 25.1813 64.456H23.9493V67H23.4053ZM25.1973 63.992C25.4533 63.992 25.6826 63.976 25.8853 63.944C26.0879 63.912 26.2586 63.8533 26.3973 63.768C26.5413 63.6773 26.6506 63.5573 26.7253 63.408C26.8053 63.2533 26.8453 63.0533 26.8453 62.808C26.8453 62.4453 26.7253 62.1707 26.4853 61.984C26.2506 61.7973 25.8746 61.704 25.3573 61.704H23.9493V63.992H25.1973Z" fill="url(#paint3_linear)"/>
<rect x="11" y="21" width="18" height="14" rx="3" fill="url(#paint4_linear)"/>
<path d="M23 25L25.2727 23H28" stroke="#4C4C4C" stroke-width="0.5"/>
<path d="M16 25L14.1818 23H12" stroke="#4C4C4C" stroke-width="0.5"/>
<path d="M23 28H25.2727H28" stroke="#4C4C4C" stroke-width="0.5"/>
<path d="M11 28H13.2727H16" stroke="#4C4C4C" stroke-width="0.5"/>
<path d="M23 31L25.2727 33H28" stroke="#4C4C4C" stroke-width="0.5"/>
<path d="M17 31L14.7273 33H12" stroke="#4C4C4C" stroke-width="0.5"/>
<line y1="-0.25" x2="4.79369" y2="-0.25" transform="matrix(0.511981 -0.858997 0.856045 0.516901 17.5455 25.1177)" stroke="#4D4C4C" stroke-width="0.5"/>
<line y1="-0.25" x2="4.79369" y2="-0.25" transform="matrix(0.511981 -0.858997 0.856045 0.516901 20 35)" stroke="#4D4C4C" stroke-width="0.5"/>
<line x1="17.75" y1="30" x2="17.75" y2="26" stroke="#4D4C4C" stroke-width="0.5"/>
<line x1="21.75" y1="30" x2="21.75" y2="26" stroke="#4D4C4C" stroke-width="0.5"/>
<line y1="-0.25" x2="4.79368" y2="-0.25" transform="matrix(0.512037 0.858963 -0.856011 0.516958 20 21)" stroke="#4D4C4C" stroke-width="0.5"/>
<line y1="-0.25" x2="4.79368" y2="-0.25" transform="matrix(0.512037 0.858963 -0.856011 0.516958 17.5455 30.8823)" stroke="#4D4C4C" stroke-width="0.5"/>
<path d="M88.38 12.39C88.88 12.4833 89.26 12.68 89.52 12.98C89.7867 13.28 89.92 13.67 89.92 14.15C89.92 14.7433 89.7033 15.2 89.27 15.52C88.8367 15.84 88.1933 16 87.34 16H84.22V9H87.14C87.9 9 88.49 9.15667 88.91 9.47C89.3367 9.77667 89.55 10.2167 89.55 10.79C89.55 11.19 89.4433 11.5267 89.23 11.8C89.0233 12.0733 88.74 12.27 88.38 12.39ZM84.73 9.44V12.23H87.12C87.7333 12.23 88.2033 12.1133 88.53 11.88C88.8633 11.64 89.03 11.29 89.03 10.83C89.03 10.3767 88.8633 10.0333 88.53 9.8C88.2033 9.56 87.7333 9.44 87.12 9.44H84.73ZM87.34 15.56C88.02 15.56 88.5333 15.4433 88.88 15.21C89.2333 14.97 89.41 14.6033 89.41 14.11C89.41 13.6167 89.2333 13.2533 88.88 13.02C88.5333 12.7867 88.02 12.67 87.34 12.67H84.73V15.56H87.34ZM93.3395 10.74C93.9862 10.74 94.4829 10.9067 94.8295 11.24C95.1762 11.5667 95.3495 12.05 95.3495 12.69V16H94.8695V15.07C94.7029 15.3767 94.4595 15.6167 94.1395 15.79C93.8195 15.9567 93.4362 16.04 92.9895 16.04C92.4095 16.04 91.9495 15.9033 91.6095 15.63C91.2762 15.3567 91.1095 14.9967 91.1095 14.55C91.1095 14.1167 91.2629 13.7667 91.5695 13.5C91.8829 13.2267 92.3795 13.09 93.0595 13.09H94.8495V12.67C94.8495 12.1833 94.7162 11.8133 94.4495 11.56C94.1895 11.3067 93.8062 11.18 93.2995 11.18C92.9529 11.18 92.6195 11.24 92.2995 11.36C91.9862 11.48 91.7195 11.64 91.4995 11.84L91.2495 11.48C91.5095 11.2467 91.8229 11.0667 92.1895 10.94C92.5562 10.8067 92.9395 10.74 93.3395 10.74ZM93.0595 15.63C93.4929 15.63 93.8595 15.53 94.1595 15.33C94.4662 15.13 94.6962 14.84 94.8495 14.46V13.48H93.0695C92.5562 13.48 92.1829 13.5733 91.9495 13.76C91.7229 13.9467 91.6095 14.2033 91.6095 14.53C91.6095 14.87 91.7362 15.14 91.9895 15.34C92.2429 15.5333 92.5995 15.63 93.0595 15.63ZM99.9596 10.74C100.613 10.74 101.13 10.93 101.51 11.31C101.89 11.69 102.08 12.2367 102.08 12.95V16H101.58V12.99C101.58 12.4033 101.43 11.9567 101.13 11.65C100.836 11.3433 100.423 11.19 99.8896 11.19C99.2763 11.19 98.7929 11.3733 98.4396 11.74C98.0863 12.1067 97.9096 12.6 97.9096 13.22V16H97.4096V10.78H97.8896V11.91C98.0696 11.5433 98.3363 11.2567 98.6896 11.05C99.0496 10.8433 99.4729 10.74 99.9596 10.74ZM105.998 13.21L104.638 14.45V16H104.138V8.58H104.638V13.83L107.978 10.78H108.618L106.368 12.89L108.838 16H108.218L105.998 13.21ZM115.705 16.05C115.019 16.05 114.399 15.8967 113.845 15.59C113.299 15.2833 112.865 14.86 112.545 14.32C112.232 13.78 112.075 13.1733 112.075 12.5C112.075 11.8267 112.232 11.22 112.545 10.68C112.865 10.14 113.299 9.71667 113.845 9.41C114.399 9.10333 115.019 8.95 115.705 8.95C116.212 8.95 116.679 9.03333 117.105 9.2C117.532 9.36 117.895 9.6 118.195 9.92L117.875 10.25C117.315 9.69667 116.599 9.42 115.725 9.42C115.139 9.42 114.605 9.55333 114.125 9.82C113.645 10.0867 113.269 10.4567 112.995 10.93C112.722 11.3967 112.585 11.92 112.585 12.5C112.585 13.08 112.722 13.6067 112.995 14.08C113.269 14.5467 113.645 14.9133 114.125 15.18C114.605 15.4467 115.139 15.58 115.725 15.58C116.592 15.58 117.309 15.3 117.875 14.74L118.195 15.07C117.895 15.39 117.529 15.6333 117.095 15.8C116.669 15.9667 116.205 16.05 115.705 16.05ZM121.539 16.04C121.046 16.04 120.599 15.9267 120.199 15.7C119.806 15.4733 119.496 15.16 119.269 14.76C119.043 14.3533 118.929 13.8967 118.929 13.39C118.929 12.8833 119.043 12.43 119.269 12.03C119.496 11.6233 119.806 11.3067 120.199 11.08C120.599 10.8533 121.046 10.74 121.539 10.74C122.033 10.74 122.476 10.8533 122.869 11.08C123.269 11.3067 123.583 11.6233 123.809 12.03C124.036 12.43 124.149 12.8833 124.149 13.39C124.149 13.8967 124.036 14.3533 123.809 14.76C123.583 15.16 123.269 15.4733 122.869 15.7C122.476 15.9267 122.033 16.04 121.539 16.04ZM121.539 15.59C121.939 15.59 122.296 15.4967 122.609 15.31C122.929 15.1233 123.179 14.8633 123.359 14.53C123.546 14.1967 123.639 13.8167 123.639 13.39C123.639 12.9633 123.546 12.5833 123.359 12.25C123.179 11.9167 122.929 11.6567 122.609 11.47C122.296 11.2833 121.939 11.19 121.539 11.19C121.139 11.19 120.779 11.2833 120.459 11.47C120.146 11.6567 119.896 11.9167 119.709 12.25C119.529 12.5833 119.439 12.9633 119.439 13.39C119.439 13.8167 119.529 14.1967 119.709 14.53C119.896 14.8633 120.146 15.1233 120.459 15.31C120.779 15.4967 121.139 15.59 121.539 15.59ZM125.475 16.04C125.361 16.04 125.261 16 125.175 15.92C125.095 15.8333 125.055 15.73 125.055 15.61C125.055 15.49 125.095 15.39 125.175 15.31C125.261 15.23 125.361 15.19 125.475 15.19C125.588 15.19 125.685 15.23 125.765 15.31C125.851 15.39 125.895 15.49 125.895 15.61C125.895 15.73 125.851 15.8333 125.765 15.92C125.685 16 125.588 16.04 125.475 16.04Z" fill="#00CE08"/>
<defs>
<linearGradient id="paint0_linear" x1="66" y1="0" x2="66" y2="81" gradientUnits="userSpaceOnUse">
<stop stop-color="#312FAA"/>
<stop offset="1" stop-color="#13133D"/>
</linearGradient>
<linearGradient id="paint1_linear" x1="66.5" y1="47" x2="66.5" y2="59" gradientUnits="userSpaceOnUse">
<stop stop-color="#F2E7E7"/>
<stop offset="1" stop-color="#656565"/>
</linearGradient>
<linearGradient id="paint2_linear" x1="45" y1="61" x2="45" y2="73" gradientUnits="userSpaceOnUse">
<stop stop-color="#C6C6C6"/>
<stop offset="1" stop-color="#656565"/>
</linearGradient>
<linearGradient id="paint3_linear" x1="27" y1="60" x2="27" y2="72" gradientUnits="userSpaceOnUse">
<stop stop-color="#C6C6C6"/>
<stop offset="1" stop-color="#656565"/>
</linearGradient>
<linearGradient id="paint4_linear" x1="20" y1="21" x2="20" y2="35" gradientUnits="userSpaceOnUse">
<stop stop-color="#C4C4C4"/>
<stop offset="1" stop-color="#807E7E"/>
</linearGradient>
</defs>
</svg>
