<?xml version="1.0" encoding="UTF-8"?>
<svg xmlns="http://www.w3.org/2000/svg" xmlns:xlink="http://www.w3.org/1999/xlink" width="48px" height="48px" viewBox="0 0 48 48" version="1.1">
<g id="surface7232">
<path style=" stroke:none;fill-rule:nonzero;fill:rgb(100%,56.078431%,0%);fill-opacity:1;" d="M 8 37 L 23.234375 8.4375 C 23.554688 7.835938 24.421875 7.84375 24.726562 8.457031 L 30 19 Z M 8 37 "/>
<path style=" stroke:none;fill-rule:nonzero;fill:rgb(100%,62.745098%,0%);fill-opacity:1;" d="M 8 36.992188 L 13.546875 2.792969 C 13.691406 1.898438 14.894531 1.703125 15.3125 2.507812 L 26 22.992188 Z M 8 36.992188 "/>
<path style=" stroke:none;fill-rule:nonzero;fill:rgb(100%,43.529412%,0%);fill-opacity:1;" d="M 8.007812 36.984375 L 8.207031 36.828125 L 25.738281 22.488281 L 20.792969 13.011719 Z M 8.007812 36.984375 "/>
<path style=" stroke:none;fill-rule:nonzero;fill:rgb(100%,76.862745%,0%);fill-opacity:1;" d="M 8 37 L 34.664062 11.285156 C 35.226562 10.746094 36.15625 11.066406 36.273438 11.835938 L 40 37 L 25 45.742188 C 24.390625 46.085938 23.648438 46.085938 23.039062 45.742188 Z M 8 37 "/>
</g>
</svg>
