<svg width="265" height="473" viewBox="0 0 265 473" fill="none" xmlns="http://www.w3.org/2000/svg">
<rect width="265" height="473" rx="25" fill="#323232"/>
<rect x="10" y="11" width="244" height="452" rx="25" fill="url(#paint0_linear)"/>
<path d="M253.5 462.5H12C30.4 246.1 180.667 76.6667 253.5 19V462.5Z" fill="url(#paint1_linear)" fill-opacity="0.49"/>
<path d="M59 11H206V23C206 31.2843 199.284 38 191 38H74C65.7157 38 59 31.2843 59 23V11Z" fill="#323232"/>
<g filter="url(#filter0_d)">
<rect x="32" y="129" width="200" height="216" rx="10" fill="white"/>
</g>
<g filter="url(#filter1_i)">
<circle cx="132" cy="129" r="40" fill="#CDCDCD"/>
</g>
<circle cx="132.5" cy="116.5" r="12.5" fill="#605E9E"/>
<circle cx="132" cy="136" r="20" fill="#605E9E"/>
<rect x="105" y="138" width="54" height="18" fill="#CDCDCD"/>
<line x1="54.9903" y1="211.5" x2="209.99" y2="210.5" stroke="#605E9E" stroke-width="3"/>
<line x1="54.9903" y1="278.5" x2="209.99" y2="277.5" stroke="#605E9E" stroke-width="3"/>
<rect x="96" y="246" width="73" height="13" rx="6.5" fill="#8671DA" fill-opacity="0.35"/>
<rect x="96" y="246" width="73" height="13" rx="6.5" fill="#8671DA" fill-opacity="0.35"/>
<rect x="96" y="246" width="73" height="13" rx="6.5" fill="#8671DA" fill-opacity="0.35"/>
<rect x="96" y="246" width="73" height="13" rx="6.5" fill="#8671DA" fill-opacity="0.35"/>
<rect x="96" y="246" width="73" height="13" rx="6.5" fill="#8671DA" fill-opacity="0.35"/>
<rect x="96" y="305" width="73" height="27" rx="13.5" fill="#6EC67C" fill-opacity="0.89"/>
<rect x="100" y="309" width="65" height="20" rx="10" fill="white" fill-opacity="0.66"/>
<rect x="96" y="181" width="73" height="13" rx="6.5" fill="#8671DA" fill-opacity="0.35"/>
<rect x="96" y="181" width="73" height="13" rx="6.5" fill="#8671DA" fill-opacity="0.35"/>
<rect x="96" y="181" width="73" height="13" rx="6.5" fill="#8671DA" fill-opacity="0.35"/>
<rect x="96" y="181" width="73" height="13" rx="6.5" fill="#8671DA" fill-opacity="0.35"/>
<rect x="96" y="181" width="73" height="13" rx="6.5" fill="#8671DA" fill-opacity="0.35"/>
<defs>
<filter id="filter0_d" x="12" y="119" width="240" height="256" filterUnits="userSpaceOnUse" color-interpolation-filters="sRGB">
<feFlood flood-opacity="0" result="BackgroundImageFix"/>
<feColorMatrix in="SourceAlpha" type="matrix" values="0 0 0 0 0 0 0 0 0 0 0 0 0 0 0 0 0 0 127 0"/>
<feOffset dy="10"/>
<feGaussianBlur stdDeviation="10"/>
<feColorMatrix type="matrix" values="0 0 0 0 0 0 0 0 0 0 0 0 0 0 0 0 0 0 0.25 0"/>
<feBlend mode="normal" in2="BackgroundImageFix" result="effect1_dropShadow"/>
<feBlend mode="normal" in="SourceGraphic" in2="effect1_dropShadow" result="shape"/>
</filter>
<filter id="filter1_i" x="92" y="89" width="80" height="84" filterUnits="userSpaceOnUse" color-interpolation-filters="sRGB">
<feFlood flood-opacity="0" result="BackgroundImageFix"/>
<feBlend mode="normal" in="SourceGraphic" in2="BackgroundImageFix" result="shape"/>
<feColorMatrix in="SourceAlpha" type="matrix" values="0 0 0 0 0 0 0 0 0 0 0 0 0 0 0 0 0 0 127 0" result="hardAlpha"/>
<feOffset dy="4"/>
<feGaussianBlur stdDeviation="2"/>
<feComposite in2="hardAlpha" operator="arithmetic" k2="-1" k3="1"/>
<feColorMatrix type="matrix" values="0 0 0 0 0 0 0 0 0 0 0 0 0 0 0 0 0 0 0.25 0"/>
<feBlend mode="normal" in2="shape" result="effect1_innerShadow"/>
</filter>
<linearGradient id="paint0_linear" x1="132" y1="11" x2="132" y2="463" gradientUnits="userSpaceOnUse">
<stop stop-color="#8F79E9"/>
<stop offset="1" stop-color="#26203F"/>
</linearGradient>
<linearGradient id="paint1_linear" x1="132.75" y1="19" x2="132.75" y2="462.5" gradientUnits="userSpaceOnUse">
<stop stop-color="#3A3A3A" stop-opacity="0.87"/>
<stop offset="1" stop-color="#3A3A3A" stop-opacity="0.33"/>
</linearGradient>
</defs>
</svg>
