<svg width="115" height="92" viewBox="0 0 115 92" fill="none" xmlns="http://www.w3.org/2000/svg">
<rect x="8" width="100" height="78" rx="5" fill="#2B2A2A"/>
<rect x="13" y="8" width="90" height="61" rx="5" fill="#20AFFF"/>
<rect x="20" y="13" width="77" height="51" fill="white"/>
<rect x="20" y="13" width="77" height="7" fill="#C4C4C4"/>
<circle cx="24.5" cy="17.5" r="1.5" fill="#D16C6C"/>
<circle cx="29.5" cy="17.5" r="1.5" fill="#979797"/>
<circle cx="34.5" cy="17.5" r="1.5" fill="#6BCE75"/>
<rect x="25" y="24" width="39" height="3" rx="1.5" fill="#A9A8A8"/>
<rect x="25" y="29" width="39" height="3" rx="1.5" fill="#A9A8A8"/>
<rect x="25" y="33" width="39" height="3" rx="1.5" fill="#A9A8A8"/>
<rect x="25" y="38" width="39" height="3" rx="1.5" fill="#A9A8A8"/>
<rect x="24" y="51" width="69" height="3" rx="1.5" fill="#A9A8A8"/>
<rect x="24" y="56" width="69" height="2" rx="1" fill="#A9A8A8"/>
<rect x="24" y="51" width="69" height="3" rx="1.5" fill="#A9A8A8"/>
<rect x="72" y="24" width="21" height="20" fill="#E0E0E0"/>
<path d="M0 82H115C115 87.5228 110.523 92 105 92H10C4.47715 92 0 87.5228 0 82Z" fill="#969696"/>
<path d="M100 69H16.4327C14.0722 69 12.6558 66.4126 14.029 64.4927C35.9896 33.7874 77.3352 14.3796 99.1861 7.19113C101.089 6.56522 103 8.00677 103 10.0097V66C103 67.6569 101.657 69 100 69Z" fill="black" fill-opacity="0.31"/>
<path d="M46 80H68C68 82.7614 65.7614 85 63 85H51C48.2386 85 46 82.7614 46 80Z" fill="#4F4F4F"/>
</svg>
