<svg width="105" height="107" viewBox="0 0 105 107" fill="none" xmlns="http://www.w3.org/2000/svg">
<rect width="100" height="75" rx="5" fill="#202020"/>
<path d="M0 5C0 2.23858 2.23858 0 5 0H95C97.7614 0 100 2.23858 100 5V8H0V5Z" fill="#C4C4C4" fill-opacity="0.26"/>
<circle cx="5.5" cy="3.5" r="1.5" fill="#CB0000"/>
<circle cx="10.5" cy="3.5" r="1.5" fill="#CBAA00"/>
<circle cx="15.5" cy="3.5" r="1.5" fill="#02C52D"/>
<line y1="-2.5" x2="15" y2="-2.5" transform="matrix(0.770121 0.637898 -0.770121 0.637898 11 19)" stroke="#02C52D" stroke-width="5"/>
<line y1="-2.5" x2="16.75" y2="-2.5" transform="matrix(0.745075 -0.66698 0.793697 0.608313 15 37.25)" stroke="#02C52D" stroke-width="5"/>
<rect x="25" y="34" width="19" height="3" fill="#02C52D"/>
<circle cx="67.5" cy="55.5" r="27.5" fill="#989898"/>
<circle cx="67" cy="55" r="23" fill="#494949"/>
<circle cx="67" cy="55" r="23" fill="#00A1D5" fill-opacity="0.38"/>
<path d="M45.032 54.012C45.264 53.948 45.576 53.876 45.968 53.796C46.36 53.716 46.84 53.676 47.408 53.676C47.88 53.676 48.272 53.744 48.584 53.88C48.904 54.016 49.156 54.212 49.34 54.468C49.532 54.716 49.668 55.016 49.748 55.368C49.828 55.72 49.868 56.108 49.868 56.532V60H49.088V56.784C49.088 56.344 49.056 55.972 48.992 55.668C48.936 55.364 48.836 55.116 48.692 54.924C48.556 54.732 48.372 54.596 48.14 54.516C47.916 54.428 47.632 54.384 47.288 54.384C46.92 54.384 46.6 54.404 46.328 54.444C46.064 54.484 45.892 54.52 45.812 54.552V60H45.032V54.012ZM52.946 58.698C53.03 58.7633 53.1327 58.8333 53.254 58.908C53.3847 58.9827 53.534 59.0527 53.702 59.118C53.87 59.1833 54.052 59.2393 54.248 59.286C54.444 59.3233 54.6494 59.342 54.864 59.342C55.312 59.342 55.6854 59.2673 55.984 59.118C56.292 58.9593 56.5394 58.7493 56.726 58.488C56.9127 58.2173 57.048 57.9047 57.132 57.55C57.216 57.186 57.258 56.8033 57.258 56.402C57.258 55.45 57.02 54.722 56.544 54.218C56.068 53.7047 55.438 53.448 54.654 53.448C54.206 53.448 53.842 53.4713 53.562 53.518C53.2914 53.5553 53.086 53.5973 52.946 53.644V58.698ZM52.946 62.59H52.036V53.014C52.3067 52.9207 52.652 52.832 53.072 52.748C53.492 52.664 54.024 52.622 54.668 52.622C55.2 52.622 55.6807 52.7107 56.11 52.888C56.5487 53.056 56.922 53.3033 57.23 53.63C57.5474 53.9567 57.79 54.3533 57.958 54.82C58.1354 55.2867 58.224 55.814 58.224 56.402C58.224 56.9527 58.1494 57.4613 58 57.928C57.86 58.3853 57.65 58.782 57.37 59.118C57.09 59.4447 56.7447 59.7013 56.334 59.888C55.9327 60.0747 55.4707 60.168 54.948 60.168C54.472 60.168 54.0567 60.1027 53.702 59.972C53.3567 59.832 53.1047 59.7013 52.946 59.58V62.59ZM60.5421 51.018C60.8901 50.922 61.3401 50.814 61.8921 50.694C62.4561 50.574 63.1821 50.514 64.0701 50.514C65.2461 50.514 66.0981 50.856 66.6261 51.54C66.6861 51.492 66.8001 51.414 66.9681 51.306C67.1481 51.186 67.3701 51.066 67.6341 50.946C67.8981 50.826 68.2041 50.724 68.5521 50.64C68.9121 50.556 69.3081 50.514 69.7401 50.514C70.4481 50.514 71.0181 50.622 71.4501 50.838C71.8941 51.042 72.2361 51.336 72.4761 51.72C72.7161 52.092 72.8781 52.542 72.9621 53.07C73.0461 53.598 73.0881 54.174 73.0881 54.798V60H71.9181V55.176C71.9181 54.564 71.8881 54.036 71.8281 53.592C71.7801 53.136 71.6721 52.764 71.5041 52.476C71.3481 52.176 71.1201 51.954 70.8201 51.81C70.5201 51.654 70.1301 51.576 69.6501 51.576C69.2901 51.576 68.9601 51.612 68.6601 51.684C68.3721 51.744 68.1201 51.822 67.9041 51.918C67.6881 52.014 67.5081 52.11 67.3641 52.206C67.2321 52.302 67.1361 52.374 67.0761 52.422C67.1841 52.734 67.2621 53.088 67.3101 53.484C67.3701 53.868 67.4001 54.276 67.4001 54.708V60H66.2301V55.176C66.2301 54.564 66.2001 54.036 66.1401 53.592C66.0921 53.136 65.9841 52.764 65.8161 52.476C65.6481 52.176 65.4081 51.954 65.0961 51.81C64.7961 51.654 64.3941 51.576 63.8901 51.576C63.3261 51.576 62.8461 51.606 62.4501 51.666C62.0661 51.726 61.8201 51.78 61.7121 51.828V60H60.5421V51.018ZM78.3437 51.684H79.1597V60H78.3437V51.684ZM81.2722 54.012C81.5042 53.948 81.8162 53.876 82.2082 53.796C82.6002 53.716 83.0802 53.676 83.6482 53.676C84.1202 53.676 84.5122 53.744 84.8242 53.88C85.1442 54.016 85.3962 54.212 85.5802 54.468C85.7722 54.716 85.9082 55.016 85.9882 55.368C86.0682 55.72 86.1082 56.108 86.1082 56.532V60H85.3282V56.784C85.3282 56.344 85.2962 55.972 85.2322 55.668C85.1762 55.364 85.0762 55.116 84.9322 54.924C84.7962 54.732 84.6122 54.596 84.3802 54.516C84.1562 54.428 83.8722 54.384 83.5282 54.384C83.1602 54.384 82.8402 54.404 82.5682 54.444C82.3042 54.484 82.1322 54.52 82.0522 54.552V60H81.2722V54.012Z" fill="#02C52D"/>
<ellipse opacity="0.5" cx="76.5" cy="67.6661" rx="3.7233" ry="6.7012" transform="rotate(40.3862 76.5 67.6661)" fill="#C4C4C4" fill-opacity="0.4"/>
<path d="M77 77.5889L83.5532 73.0003L101.712 98.9337C102.979 100.743 102.539 103.238 100.73 104.505V104.505C98.9201 105.772 96.4259 105.332 95.1588 103.522L77 77.5889Z" fill="#989898"/>
</svg>
